<svg width="335" height="300" viewBox="0 0 335 300" fill="none" xmlns="http://www.w3.org/2000/svg">
<path d="M0 146C0 103.158 0 81.7368 6.4556 64.6525C16.6024 37.7997 37.7997 16.6024 64.6525 6.4556C81.7368 0 103.158 0 146 0H188.91C231.753 0 253.174 0 270.258 6.4556C297.111 16.6024 318.308 37.7997 328.455 64.6525C334.91 81.7368 334.91 103.158 334.91 146V300H146C103.158 300 81.7368 300 64.6525 293.544C37.7997 283.398 16.6024 262.2 6.4556 235.347C0 218.263 0 196.842 0 154V146Z" fill="white"/>
<path d="M168.122 128.833L187.724 148.319C188.333 148.925 188.163 149.97 187.477 150.488C182.95 153.904 177.713 163.047 173.452 172.035C171.975 175.151 166.67 174.159 166.617 170.714L165.996 129.729C165.979 128.616 167.331 128.046 168.122 128.833Z" fill="#FCC500"/>
<path d="M164.603 130.39L165.204 187.406C165.212 188.169 163.428 188.428 163.153 187.716C158.427 175.507 148.071 162.235 141.379 154.856C140.245 153.606 140.268 151.689 141.463 150.496L162.476 129.528C163.255 128.75 164.591 129.291 164.603 130.39Z" fill="#FCC500"/>
<path d="M161.271 122.301L141.669 102.815C141.06 102.209 140.011 102.381 139.492 103.065C136.07 107.58 126.9 112.813 117.885 117.074C114.759 118.551 115.765 123.833 119.224 123.879L160.376 124.42C161.493 124.434 162.062 123.088 161.271 122.301Z" fill="#00BDFF"/>
<path d="M159.714 125.809L102.467 125.318C101.702 125.312 101.444 127.088 102.16 127.361C114.427 132.045 127.772 142.334 135.194 148.986C136.451 150.113 138.376 150.087 139.571 148.894L160.584 127.926C161.364 127.148 160.817 125.818 159.714 125.809Z" fill="#00BDFF"/>
<path d="M162.426 121.149L142.824 101.663C142.215 101.057 142.385 100.012 143.071 99.4939C147.598 96.0772 152.835 86.9341 157.096 77.9464C158.573 74.8306 163.878 75.8225 163.93 79.2673L164.551 120.253C164.568 121.366 163.217 121.935 162.426 121.149Z" fill="#FE265B"/>
<path d="M165.945 119.592L165.344 62.5758C165.336 61.8131 167.119 61.554 167.395 62.2657C172.12 74.475 182.476 87.7474 189.169 95.1262C190.303 96.3764 190.28 98.2934 189.085 99.4862L168.072 120.454C167.292 121.232 165.956 120.691 165.945 119.592Z" fill="#FE265B"/>
<path d="M169.138 127.82L188.74 147.306C189.349 147.912 190.398 147.741 190.917 147.056C194.339 142.541 203.508 137.308 212.524 133.047C215.65 131.57 214.644 126.288 211.185 126.243L170.033 125.701C168.916 125.687 168.347 127.034 169.138 127.82Z" fill="#4425F5"/>
<path d="M170.694 124.312L227.94 124.803C228.706 124.809 228.963 123.033 228.248 122.759C215.981 118.076 202.635 107.787 195.214 101.135C193.957 100.008 192.032 100.034 190.837 101.227L169.824 122.195C169.044 122.973 169.59 124.303 170.694 124.312Z" fill="#4425F5"/>
<path d="M204.562 96.5679C210.388 95.6949 214.377 90.2802 213.472 84.4739C212.568 78.6676 207.112 74.6683 201.286 75.5413C195.461 76.4144 191.472 81.829 192.376 87.6353C193.281 93.4417 198.737 97.4409 204.562 96.5679Z" fill="#FE265B"/>
<path d="M91.3892 234.769L84.7583 234.762L84.6992 201.824L91.3301 201.83L91.3537 214.979L105.243 214.992L105.219 201.843L111.85 201.849L111.909 234.787L105.278 234.781L105.254 221.365L91.3651 221.352L91.3892 234.769ZM116.758 222.624C116.752 219.029 117.971 216.014 120.416 213.579C122.89 211.086 126.025 209.84 129.818 209.844C133.611 209.847 136.75 211.098 139.233 213.597C141.687 216.036 142.917 219.053 142.923 222.648C142.93 226.273 141.711 229.303 139.266 231.737C136.791 234.201 133.657 235.431 129.864 235.428C126.07 235.424 122.932 234.189 120.448 231.72C117.995 229.281 116.765 226.249 116.758 222.624ZM125.011 227.579C126.298 228.917 127.912 229.587 129.853 229.589C131.735 229.591 133.332 228.924 134.644 227.588C135.955 226.192 136.61 224.544 136.606 222.642C136.603 220.74 135.943 219.106 134.626 217.738C133.309 216.399 131.71 215.729 129.828 215.727C127.887 215.726 126.275 216.393 124.993 217.729C123.711 219.035 123.072 220.669 123.075 222.63C123.079 224.561 123.724 226.211 125.011 227.579ZM155.374 235.452C151.133 235.448 147.77 233.885 145.285 230.762L148.638 226.799C149.506 227.839 150.538 228.672 151.734 229.297C152.96 229.893 154.185 230.191 155.41 230.192C156.365 230.193 157.157 229.971 157.783 229.526C158.439 229.081 158.767 228.517 158.766 227.833C158.764 226.971 158.181 226.272 157.015 225.736C156.656 225.588 155.685 225.215 154.1 224.619C152.696 224.113 151.649 223.681 150.962 223.324C148.152 221.984 146.744 219.888 146.739 217.036C146.735 214.926 147.568 213.174 149.238 211.779C150.879 210.413 153.088 209.732 155.866 209.734C159.33 209.738 162.185 210.899 164.43 213.219L161.3 217.272C159.595 215.666 157.727 214.862 155.696 214.86C154.889 214.859 154.218 215.067 153.681 215.482C153.174 215.868 152.921 216.343 152.922 216.908C152.924 217.918 153.642 218.661 155.076 219.138C158.274 220.33 160.232 221.119 160.95 221.506C163.7 222.935 165.078 224.986 165.083 227.661C165.087 229.949 164.194 231.82 162.404 233.274C160.675 234.728 158.331 235.454 155.374 235.452ZM183.424 209.938C186.859 209.941 189.729 211.177 192.033 213.645C194.308 216.084 195.448 219.101 195.454 222.697C195.461 226.262 194.316 229.277 192.021 231.742C189.725 234.206 186.86 235.436 183.425 235.433C180.408 235.43 177.853 234.299 175.758 232.039L175.781 244.83L169.464 244.825L169.402 210.549L175.674 210.555L175.68 213.541C177.766 211.136 180.348 209.935 183.424 209.938ZM182.34 229.682C184.341 229.684 185.967 229.017 187.22 227.681C188.472 226.345 189.096 224.696 189.092 222.735C189.089 220.774 188.459 219.124 187.202 217.786C185.945 216.448 184.316 215.778 182.315 215.776C180.343 215.774 178.732 216.441 177.48 217.777C176.227 219.113 175.603 220.762 175.607 222.723C175.61 224.684 176.24 226.334 177.497 227.672C178.754 229.01 180.368 229.68 182.34 229.682ZM209.813 226.409L215.34 210.592L222.24 210.598L212.473 236.084C211.284 239.203 209.855 241.504 208.184 242.988C206.545 244.472 204.53 245.214 202.14 245.211C200.288 245.21 198.719 244.807 197.434 244.004L198.5 238.745C199.605 239.281 200.651 239.549 201.637 239.55C203.579 239.552 205.159 238.276 206.379 235.721L206.87 234.608L196.164 210.574L203.467 210.581L209.813 226.409ZM241.297 228.533L243.187 233.482C241.159 234.818 238.755 235.484 235.978 235.481C233.17 235.479 231.048 234.675 229.611 233.069C228.174 231.433 227.453 229.041 227.448 225.891L227.43 215.862L223.442 215.858L223.433 210.599L227.465 210.603L227.45 202.001L233.722 202.006L233.737 210.609L241.802 210.616L241.812 215.875L233.747 215.868L233.764 225.495C233.769 228.348 234.922 229.775 237.222 229.778C238.476 229.779 239.835 229.364 241.297 228.533ZM264.394 213.534L264.389 210.637L270.392 210.642L270.436 234.934L264.432 234.928L264.427 232.12C262.34 234.377 259.744 235.503 256.637 235.501C253.113 235.497 250.213 234.276 247.939 231.838C245.665 229.399 244.524 226.337 244.518 222.653C244.511 218.998 245.655 215.983 247.951 213.608C250.247 211.203 253.127 210.003 256.592 210.006C259.638 210.008 262.239 211.185 264.394 213.534ZM264.5 222.76C264.496 220.859 263.836 219.209 262.52 217.811C261.233 216.443 259.604 215.758 257.633 215.756C255.631 215.755 253.99 216.436 252.708 217.802C251.456 219.168 250.831 220.816 250.835 222.748C250.838 224.709 251.484 226.373 252.77 227.741C254.057 229.11 255.686 229.795 257.658 229.796C259.629 229.798 261.256 229.116 262.538 227.751C263.849 226.355 264.503 224.692 264.5 222.76Z" fill="black"/>
<path d="M215.592 253V244.6H218.508C219.82 244.6 220.892 245 221.724 245.8C222.556 246.592 222.972 247.592 222.972 248.8C222.972 250 222.552 251 221.712 251.8C220.88 252.6 219.812 253 218.508 253H215.592ZM216.54 252.124H218.508C219.556 252.124 220.396 251.812 221.028 251.188C221.668 250.556 221.988 249.76 221.988 248.8C221.988 247.848 221.668 247.056 221.028 246.424C220.388 245.792 219.548 245.476 218.508 245.476H216.54V252.124ZM231.963 251.872C231.155 252.72 230.127 253.144 228.879 253.144C227.631 253.144 226.607 252.72 225.807 251.872C225.007 251.024 224.607 250 224.607 248.8C224.607 247.608 225.011 246.588 225.819 245.74C226.627 244.884 227.655 244.456 228.903 244.456C230.151 244.456 231.175 244.88 231.975 245.728C232.775 246.576 233.175 247.6 233.175 248.8C233.175 249.992 232.771 251.016 231.963 251.872ZM226.527 251.26C227.159 251.932 227.951 252.268 228.903 252.268C229.855 252.268 230.639 251.936 231.255 251.272C231.879 250.6 232.191 249.776 232.191 248.8C232.191 247.832 231.875 247.012 231.243 246.34C230.619 245.668 229.831 245.332 228.879 245.332C227.927 245.332 227.139 245.668 226.515 246.34C225.899 247.004 225.591 247.824 225.591 248.8C225.591 249.768 225.903 250.588 226.527 251.26ZM239.014 253.144C237.806 253.144 236.802 252.728 236.002 251.896C235.202 251.056 234.802 250.024 234.802 248.8C234.802 247.592 235.206 246.568 236.014 245.728C236.822 244.88 237.834 244.456 239.05 244.456C239.754 244.456 240.354 244.572 240.85 244.804C241.346 245.028 241.83 245.364 242.302 245.812L241.678 246.484C240.87 245.716 239.99 245.332 239.038 245.332C238.11 245.332 237.334 245.664 236.71 246.328C236.094 246.992 235.786 247.816 235.786 248.8C235.786 249.776 236.098 250.6 236.722 251.272C237.346 251.936 238.118 252.268 239.038 252.268C239.582 252.268 240.062 252.168 240.478 251.968C240.894 251.768 241.318 251.464 241.75 251.056L242.374 251.716C241.902 252.188 241.406 252.544 240.886 252.784C240.366 253.024 239.742 253.144 239.014 253.144ZM246.254 253V245.476H243.434V244.6H250.034V245.476H247.214V253H246.254ZM258.225 251.872C257.417 252.72 256.389 253.144 255.141 253.144C253.893 253.144 252.869 252.72 252.069 251.872C251.269 251.024 250.869 250 250.869 248.8C250.869 247.608 251.273 246.588 252.081 245.74C252.889 244.884 253.917 244.456 255.165 244.456C256.413 244.456 257.437 244.88 258.237 245.728C259.037 246.576 259.437 247.6 259.437 248.8C259.437 249.992 259.033 251.016 258.225 251.872ZM252.789 251.26C253.421 251.932 254.213 252.268 255.165 252.268C256.117 252.268 256.901 251.936 257.517 251.272C258.141 250.6 258.453 249.776 258.453 248.8C258.453 247.832 258.137 247.012 257.505 246.34C256.881 245.668 256.093 245.332 255.141 245.332C254.189 245.332 253.401 245.668 252.777 246.34C252.161 247.004 251.853 247.824 251.853 248.8C251.853 249.768 252.165 250.588 252.789 251.26ZM261.436 253V244.6H265.048C266.08 244.6 266.876 244.88 267.436 245.44C267.868 245.872 268.084 246.432 268.084 247.12C268.084 247.792 267.876 248.336 267.46 248.752C267.044 249.168 266.492 249.44 265.804 249.568L268.384 253H267.22L264.784 249.736H262.384V253H261.436ZM262.384 248.884H264.964C265.604 248.884 266.124 248.728 266.524 248.416C266.924 248.104 267.124 247.676 267.124 247.132C267.124 246.612 266.932 246.208 266.548 245.92C266.172 245.624 265.648 245.476 264.976 245.476H262.384V248.884ZM272.988 253.12C271.7 253.12 270.556 252.672 269.556 251.776L270.144 251.08C270.592 251.488 271.04 251.788 271.488 251.98C271.944 252.172 272.456 252.268 273.024 252.268C273.584 252.268 274.036 252.136 274.38 251.872C274.724 251.6 274.896 251.248 274.896 250.816C274.896 250.408 274.744 250.084 274.44 249.844C274.136 249.604 273.56 249.396 272.712 249.22C271.712 249.004 270.992 248.712 270.552 248.344C270.112 247.976 269.892 247.452 269.892 246.772C269.892 246.108 270.152 245.56 270.672 245.128C271.192 244.696 271.852 244.48 272.652 244.48C273.764 244.48 274.748 244.824 275.604 245.512L275.052 246.244C274.308 245.636 273.5 245.332 272.628 245.332C272.092 245.332 271.66 245.464 271.332 245.728C271.004 245.984 270.84 246.312 270.84 246.712C270.84 247.128 270.996 247.456 271.308 247.696C271.628 247.936 272.232 248.152 273.12 248.344C274.072 248.552 274.764 248.844 275.196 249.22C275.636 249.588 275.856 250.096 275.856 250.744C275.856 251.456 275.588 252.032 275.052 252.472C274.516 252.904 273.828 253.12 272.988 253.12Z" fill="black"/>
</svg>
